<svg xmlns="http://www.w3.org/2000/svg" viewBox="0 0 251.4 71.85"><defs><style>.cls-1{fill:#fff;}</style></defs><g id="圖層_2" data-name="圖層 2"><g id="Ebene_1" data-name="Ebene 1"><polygon class="cls-1" points="85.3 9.07 53.87 9.07 53.87 0.09 89.78 0.09 85.3 9.07"/><polygon class="cls-1" points="85.3 35.87 53.87 35.87 53.87 26.89 89.78 26.89 85.3 35.87"/><rect class="cls-1" x="40.4" y="13.47" width="35.91" height="8.98" transform="translate(40.4 76.32) rotate(-90)"/><polygon class="cls-1" points="125.7 9.07 94.27 9.07 94.27 0.09 130.19 0.09 125.7 9.07"/><polygon class="cls-1" points="125.7 35.87 94.27 35.87 94.27 26.89 130.19 26.89 125.7 35.87"/><rect class="cls-1" x="80.81" y="13.47" width="35.91" height="8.98" transform="translate(80.81 116.72) rotate(-90)"/><rect class="cls-1" x="134.68" y="0.09" width="35.91" height="8.98"/><rect class="cls-1" x="134.68" y="26.89" width="35.91" height="8.98"/><rect class="cls-1" x="134.68" y="13.47" width="35.91" height="8.98"/><rect class="cls-1" x="121.21" y="13.47" width="35.91" height="8.98" transform="translate(121.21 157.12) rotate(-90)"/><polygon class="cls-1" points="206.5 9.07 175.08 9.07 175.08 0.09 210.99 0.09 206.5 9.07"/><polygon class="cls-1" points="210.99 35.87 175.08 35.87 179.57 26.89 210.99 26.89 210.99 35.87"/><rect class="cls-1" x="175.08" y="13.47" width="35.91" height="8.98"/><rect class="cls-1" x="168.35" y="6.73" width="22.45" height="8.98" transform="translate(168.35 190.79) rotate(-90)"/><polygon class="cls-1" points="246.91 9.07 215.48 9.07 215.48 0.09 251.4 0.09 246.91 9.07"/><polygon class="cls-1" points="251.4 35.87 215.48 35.87 219.97 26.89 251.4 26.89 251.4 35.87"/><rect class="cls-1" x="215.48" y="13.47" width="35.91" height="8.98"/><rect class="cls-1" x="208.75" y="6.73" width="22.45" height="8.98" transform="translate(208.75 231.2) rotate(-90)"/><polygon class="cls-1" points="44.89 26.93 0 26.93 4.49 17.96 44.89 17.96 44.89 26.93"/><rect class="cls-1" x="23.99" y="0.09" width="20.9" height="8.98"/><rect class="cls-1" x="22.45" y="13.47" width="35.91" height="8.98" transform="translate(22.45 58.36) rotate(-90)"/><polygon class="cls-1" points="31.43 0 13.47 35.91 4.49 35.91 22.45 0 31.43 0"/><rect class="cls-1" x="192.41" y="49.4" width="4.49" height="22.45"/><rect class="cls-1" x="185.68" y="49.4" width="17.96" height="4.49"/><path class="cls-1" d="M173.83,49.4a11.23,11.23,0,1,0,11.23,11.23A11.23,11.23,0,0,0,173.83,49.4Zm0,18a6.74,6.74,0,1,1,6.74-6.73A6.73,6.73,0,0,1,173.83,67.36Z"/><path class="cls-1" d="M215.48,49.4a11.23,11.23,0,1,0,11.23,11.23A11.23,11.23,0,0,0,215.48,49.4Zm0,18a6.74,6.74,0,1,1,6.74-6.73A6.73,6.73,0,0,1,215.48,67.36Z"/><rect class="cls-1" x="231.2" y="49.4" width="4.49" height="22.45"/><rect class="cls-1" x="234.98" y="49.4" width="9.68" height="4.49"/><path class="cls-1" d="M244.66,49.4v4.49a2.25,2.25,0,1,1,0,4.49v4.49a6.74,6.74,0,1,0,0-13.47Z"/><polygon class="cls-1" points="246.91 71.85 240.17 58.38 244.66 58.38 251.4 71.85 246.91 71.85"/><rect class="cls-1" x="135.68" y="49.4" width="4.49" height="22.45"/><rect class="cls-1" x="153.63" y="49.4" width="4.49" height="22.45"/><polygon class="cls-1" points="146.9 71.85 158.12 49.41 153.63 49.41 146.9 62.87 140.16 49.41 135.68 49.41 146.9 71.85 146.9 71.85 146.9 71.85 146.9 71.85 146.9 71.85"/><polygon class="cls-1" points="0 26.93 4.49 17.96 13.47 17.96 22.45 0 44.89 0 35.91 9.07 26.89 9.07 17.98 26.89 0 26.93"/></g></g></svg>